<svg width="110" height="165" viewBox="0 0 110 165" fill="none" xmlns="http://www.w3.org/2000/svg">
<g clip-path="url(#clip0)">
<g clip-path="url(#clip1)">
<path d="M105.434 91.4215C101.933 85.5277 97.0153 79.9213 93.6947 76.9801C86.4459 70.5578 80.3991 70.7142 77.4392 71.3794C76.1957 71.6589 75.0538 72.1197 74.0486 72.7344C68.8839 68.9018 62.6011 67.0243 54.9999 67.0243C47.3988 67.0243 41.1157 68.9018 35.9513 72.7346C34.9458 72.12 33.8041 71.6589 32.5606 71.3796C29.6016 70.7147 23.5539 70.558 16.3055 76.9801C12.9847 79.9216 8.06694 85.5279 4.56585 91.4217C-0.174024 99.4012 -1.22976 105.856 1.42785 110.608C4.67284 116.409 9.5949 117.894 13.5684 118.26C12.5918 122.053 11.9887 126.111 11.9887 131.167C11.9887 137.868 13.5141 143.634 16.523 148.303C19.1679 152.408 22.9758 155.696 27.8407 158.074C36.8293 162.468 47.646 162.976 55.0001 162.976C62.3542 162.976 73.1711 162.468 82.1596 158.074C87.0243 155.696 90.8324 152.408 93.4773 148.303C96.486 143.634 98.0116 137.868 98.0116 131.167C98.0116 126.111 97.4085 122.053 96.4318 118.26C100.405 117.894 105.328 116.409 108.572 110.608C111.23 105.856 110.174 99.4012 105.434 91.4215ZM15.6574 111.628C12.1408 111.536 9.28123 110.855 7.30446 107.321C5.96341 104.923 7.07522 100.382 10.3552 94.8598C13.4681 89.6192 17.9362 84.5304 20.7704 82.0195C25.451 77.8722 28.9598 77.6438 30.6107 77.8649C25.6978 83.8538 22.6866 91.6372 20.1684 99.2046C19.1256 102.338 18.1205 105.014 17.1482 107.602C16.6282 108.986 16.1281 110.318 15.6574 111.628ZM50.6074 133.704C48.8657 131.963 47.9541 130.135 47.9541 129.23C47.9541 128.421 48.0927 128.363 48.6077 128.147C50.0757 127.529 52.9589 127.458 54.9999 127.458C57.0409 127.458 59.9241 127.529 61.3921 128.147C61.9071 128.363 62.0457 128.422 62.0457 129.23C62.0457 130.135 61.1343 131.962 59.3924 133.704C57.6794 135.415 55.8509 136.339 54.9997 136.339C54.1485 136.339 52.3204 135.415 50.6074 133.704ZM79.2027 152.025C74.0355 154.55 67.1953 155.92 58.3665 156.192V142.4C61.0099 141.38 63.1627 139.455 64.1522 138.466C65.5434 137.076 68.7789 133.392 68.7789 129.23C68.7789 125.825 67.0829 123.236 64.0034 121.941C61.9507 121.077 59.3421 120.725 55.0001 120.725C50.6581 120.725 48.0495 121.077 45.9967 121.941C42.9173 123.236 41.2211 125.825 41.2211 129.23C41.2211 133.392 44.4569 137.075 45.8478 138.466C46.8374 139.455 48.9903 141.38 51.6335 142.4V156.192C42.8048 155.92 35.9646 154.551 30.7974 152.025C22.6716 148.053 18.7215 141.23 18.7215 131.167C18.7215 122.557 20.7053 117.277 23.4508 109.969C24.3989 107.446 25.4731 104.586 26.5566 101.33C32.5077 83.4478 38.8031 73.7573 54.9999 73.7573C71.1967 73.7573 77.4921 83.448 83.443 101.33C84.5263 104.586 85.6009 107.446 86.5488 109.969C89.2943 117.277 91.2782 122.557 91.2782 131.167C91.2784 141.23 87.3283 148.053 79.2027 152.025ZM102.696 107.321C100.719 110.856 97.8592 111.536 94.3427 111.628C93.8717 110.317 93.372 108.986 92.8521 107.602C91.8799 105.014 90.8749 102.338 89.8318 99.2046C87.3137 91.6372 84.3024 83.8538 79.3896 77.8649C81.0404 77.6442 84.5495 77.8722 89.2303 82.0197C92.0645 84.5302 96.5324 89.6187 99.6452 94.8594C102.925 100.382 104.037 104.924 102.696 107.321Z" fill="black"/>
<path d="M43.796 102.809C41.3603 102.809 39.378 104.811 39.378 107.284C39.378 109.756 41.3601 111.761 43.796 111.761C46.2349 111.761 48.2169 109.756 48.2169 107.284C48.2169 104.811 46.2349 102.809 43.796 102.809Z" fill="black"/>
<path d="M66.1707 102.774C63.7114 102.774 61.7163 104.793 61.7163 107.284C61.7163 109.775 63.7114 111.794 66.1707 111.794C68.6272 111.794 70.622 109.775 70.622 107.284C70.6222 104.793 68.6272 102.774 66.1707 102.774Z" fill="black"/>
</g>
<g clip-path="url(#clip2)">
<path d="M48.0695 60.9792C47.4255 60.9792 46.9033 61.5015 46.9033 62.146V63.3122C46.8947 65.258 48.0999 67.0025 49.9218 67.6839C51.7443 68.3652 53.7985 67.8393 55.0689 66.366C56.3392 67.8393 58.3929 68.3652 60.2154 67.6839C62.0379 67.0025 63.2425 65.258 63.234 63.3122V62.146C63.234 61.5015 62.7117 60.9792 62.0678 60.9792C61.4232 60.9792 60.901 61.5015 60.901 62.146V63.3122C60.901 64.6007 59.8565 65.6451 58.568 65.6451C57.2796 65.6451 56.2351 64.6007 56.2351 63.3122V59.5936C56.6457 59.4424 57.0168 59.1995 57.3201 58.8839L59.0663 57.0171C59.7273 56.34 59.9153 55.3313 59.5415 54.4615C59.0417 53.4197 57.9721 52.7725 56.8171 52.8136H53.3201C52.1651 52.7725 51.0961 53.4197 50.5963 54.4615C50.223 55.3308 50.4099 56.3395 51.0704 57.0171L52.8187 58.8839C53.1215 59.1995 53.492 59.4424 53.9021 59.5936V63.3122C53.9021 64.6007 52.8577 65.6451 51.5692 65.6451C50.2807 65.6451 49.2362 64.6007 49.2362 63.3122V62.146C49.2362 61.5015 48.714 60.9792 48.0695 60.9792V60.9792ZM52.7343 55.3949C52.7482 55.3404 52.9228 55.1466 53.3201 55.1466H56.8171C57.2149 55.1466 57.389 55.3404 57.3629 55.4226L55.6167 57.2889C55.2899 57.5249 54.8489 57.5249 54.5221 57.2889L52.7343 55.3949Z" fill="#0D0C0C"/>
<path d="M40.3294 48.8333C42.4056 48.0217 44.0577 47.9256 45.2437 48.5525C46.0708 49.0288 46.6774 49.8121 46.9305 50.7327C47.0773 51.351 47.692 51.7382 48.313 51.6031C48.934 51.4685 49.3329 50.8608 49.2101 50.2377C48.8117 48.6603 47.787 47.3136 46.3725 46.5105C44.5575 45.5339 42.2395 45.5841 39.4793 46.66C38.8791 46.895 38.5828 47.5715 38.8172 48.1717C39.0522 48.7719 39.7287 49.0683 40.3294 48.8333V48.8333Z" fill="#0D0C0C"/>
<path d="M60.6575 51.6218C60.9598 51.6858 61.2759 51.6276 61.5354 51.4594C61.7949 51.2907 61.977 51.0258 62.0416 50.7236C62.291 49.8132 62.8885 49.0378 63.7044 48.5642C64.8904 47.925 66.5516 48.0169 68.6416 48.8323C69.2418 49.0672 69.9189 48.7709 70.1533 48.1707C70.3882 47.5705 70.0919 46.8934 69.4917 46.659C66.7326 45.5825 64.4141 45.5323 62.5985 46.5089C61.184 47.3126 60.1588 48.6593 59.761 50.2366C59.6958 50.5389 59.754 50.855 59.9217 51.115C60.0899 51.3745 60.3548 51.5572 60.6575 51.6218Z" fill="#0D0C0C"/>
<path d="M24.7399 50.4807C25.8014 50.4818 26.8625 50.5485 27.916 50.6799C27.3676 52.5077 27.0835 54.4049 27.0728 56.3133V56.3235C26.0214 56.6337 25.0186 57.0892 24.0927 57.6755C23.7419 57.9051 23.5411 58.3051 23.5667 58.7237C23.5924 59.1424 23.8407 59.5146 24.2171 59.6993C24.5936 59.8841 25.04 59.8526 25.3871 59.6171C25.9734 59.2422 26.6029 58.9389 27.2619 58.7136C27.4664 60.1302 27.8722 61.5106 28.4676 62.8124C26.3077 64.2285 24.93 66.569 24.7399 69.1449C24.7399 72.7423 28.3154 74.977 34.0717 74.977C36.6679 75.1367 39.247 74.4569 41.4273 73.0387C45.8508 74.3704 50.4499 75.024 55.0689 74.977C59.6878 75.024 64.287 74.3704 68.7099 73.0387C70.8901 74.4569 73.4693 75.1367 76.0655 74.977C81.8218 74.977 85.3973 72.7423 85.3973 69.1449C85.2077 66.569 83.8295 64.2285 81.6696 62.8124C82.265 61.5106 82.6708 60.1302 82.8753 58.7136C83.5342 58.9389 84.1638 59.2422 84.7507 59.6171C85.0972 59.8526 85.5436 59.8841 85.9201 59.6993C86.2965 59.5146 86.5448 59.1424 86.571 58.7237C86.5966 58.3051 86.3958 57.9051 86.0445 57.6755C85.1186 57.0892 84.1158 56.6337 83.0643 56.3235V56.3133C83.0542 54.4049 82.7701 52.5077 82.2212 50.6799C83.2747 50.5485 84.3358 50.4823 85.3973 50.4807C86.0418 50.4807 86.564 49.9585 86.564 49.3145C86.564 48.67 86.0418 48.1477 85.3973 48.1477C84.0661 48.1483 82.7365 48.2422 81.4181 48.4286C80.9279 47.2266 80.3475 46.0631 79.6827 44.9481C80.45 42.4571 83.4563 31.9767 80.8649 28.4027C80.3144 27.6055 79.4023 27.1361 78.4337 27.1511C76.6966 27.2835 75.0077 27.7844 73.4794 28.6206C70.495 24.4022 65.2326 21.4386 59.2344 20.4865C59.2147 18.8974 59.015 17.3157 58.6396 15.7709C58.3779 14.4766 58.858 13.1437 59.8848 12.3129C61.3399 11.3325 63.7161 12.8495 64.6693 13.5464C65.6785 14.2955 67.0113 14.4461 68.162 13.941C69.3128 13.4364 70.1047 12.3529 70.236 11.1029C70.3679 9.85336 69.819 8.62894 68.7991 7.89525C62.3967 3.20958 57.7067 5.35031 55.9798 6.49302C52.5175 8.96215 50.8857 13.2762 51.8474 17.4188C52.0791 18.365 52.2137 19.332 52.2478 20.3055C45.6922 21.0007 39.8601 24.0839 36.6604 28.6126C35.1418 27.7828 33.464 27.2846 31.7388 27.1511C30.7685 27.1361 29.8543 27.6066 29.3022 28.4044C26.721 31.9633 29.7123 42.4133 30.4775 44.9006C29.8025 46.03 29.2141 47.209 28.7175 48.4275C27.3996 48.2417 26.0706 48.1483 24.7399 48.1477C24.0954 48.1477 23.5731 48.67 23.5731 49.3145C23.5731 49.9585 24.0954 50.4807 24.7399 50.4807V50.4807ZM27.0728 69.1449C27.0728 66.5193 30.3024 63.3122 34.0717 63.3122C37.8411 63.3122 41.0706 66.5193 41.0706 69.1449C41.0706 70.8429 39.5018 71.818 37.4668 72.289C37.5335 72.0236 37.5687 71.7512 37.5714 71.4778V69.1449C37.5714 68.5004 37.0492 67.9781 36.4047 67.9781C35.7607 67.9781 35.2385 68.5004 35.2385 69.1449V71.4778C35.2385 72.1218 34.7162 72.6441 34.0717 72.6441C33.4277 72.6441 32.905 72.1218 32.905 71.4778V69.1449C32.905 68.5004 32.3827 67.9781 31.7388 67.9781C31.0942 67.9781 30.572 68.5004 30.572 69.1449V71.4778C30.5747 71.7512 30.6099 72.0236 30.6767 72.289C28.6417 71.818 27.0728 70.8429 27.0728 69.1449V69.1449ZM83.0643 69.1449C83.0643 70.8429 81.4955 71.818 79.4611 72.289C79.5273 72.0236 79.5625 71.7512 79.5652 71.4778V69.1449C79.5652 68.5004 79.0429 67.9781 78.3984 67.9781C77.7545 67.9781 77.2322 68.5004 77.2322 69.1449V71.4778C77.2322 72.1218 76.71 72.6441 76.0655 72.6441C75.4215 72.6441 74.8993 72.1218 74.8993 71.4778V69.1449C74.8993 68.5004 74.377 67.9781 73.7325 67.9781C73.0885 67.9781 72.5663 68.5004 72.5663 69.1449V71.4778C72.569 71.7512 72.6037 72.0236 72.6704 72.289C70.6354 71.818 69.0666 70.8429 69.0666 69.1449C69.0666 66.5193 72.2961 63.3122 76.0655 63.3122C79.8348 63.3122 83.0643 66.5204 83.0643 69.1449V69.1449ZM54.113 16.8634C53.3639 13.6724 54.6123 10.3441 57.2753 8.43351C58.9055 7.3554 62.3887 6.09467 67.4219 9.7786C67.7584 10.0248 67.9383 10.4311 67.8935 10.846C67.8491 11.2604 67.5864 11.6192 67.2052 11.788C66.8244 11.9567 66.3818 11.9086 66.0453 11.663C63.1485 9.54472 60.4989 9.08817 58.5862 10.3745C56.7461 11.7517 55.8805 14.0777 56.3728 16.3225C56.6863 17.6003 56.8641 18.9075 56.9047 20.2222C56.2965 20.1805 55.6856 20.1517 55.0689 20.1517C54.9033 20.1517 54.7399 20.1629 54.5749 20.1661C54.5327 19.0522 54.3779 17.9458 54.113 16.8634V16.8634ZM55.0689 22.4847C61.8691 22.4847 68.1231 25.2929 71.4012 29.7227C69.8377 30.6076 68.1124 31.7033 66.2018 33.0425C59.1276 29.8696 51.0362 29.8659 43.9594 33.0324C42.0392 31.6926 40.3075 30.5969 38.7414 29.7131C42.0109 25.2891 48.2622 22.4847 55.0689 22.4847V22.4847ZM32.8585 44.695C30.7205 38.1479 29.9718 31.4555 31.1904 29.7745C31.3052 29.5828 31.5161 29.4712 31.7388 29.4841C33.4032 29.6688 35.0056 30.2215 36.4298 31.1015C36.4399 31.1079 36.4447 31.118 36.4549 31.1244C36.4928 31.1431 36.5318 31.1597 36.5713 31.1741C38.8556 32.4129 41.0567 33.7992 43.1606 35.3237C43.5039 35.5672 43.9514 35.6067 44.3316 35.4267C51.1292 32.1801 59.031 32.1839 65.8253 35.4369C66.2071 35.619 66.6578 35.58 67.0022 35.3338C72.2267 31.6162 76.3939 29.4841 78.4337 29.4841C78.6537 29.4718 78.8625 29.5828 78.9757 29.7719C80.2006 31.4614 79.4488 38.1762 77.3011 44.7404C77.1932 45.0693 77.237 45.4287 77.4207 45.7219C78.0476 46.7273 78.5987 47.7777 79.0707 48.8638C76.4991 49.401 74.0534 50.4251 71.8663 51.8808C71.3638 52.2706 71.2666 52.9909 71.6473 53.5003C72.0281 54.0098 72.7468 54.1203 73.2626 53.7486C75.2891 52.4484 77.5419 51.5412 79.9037 51.0739C80.3752 52.584 80.6454 54.1502 80.7074 55.7313C78.7914 55.3698 76.8483 55.1744 74.8993 55.1466C74.2548 55.1466 73.7325 55.6688 73.7325 56.3133C73.7325 56.9573 74.2548 57.4796 74.8993 57.4796C76.8205 57.5137 78.7354 57.7182 80.6203 58.0904C80.466 59.3298 80.1312 60.5398 79.6266 61.6825C78.4962 61.2201 77.2867 60.9814 76.0655 60.9793C70.8095 60.9793 66.7336 65.3686 66.7336 69.1449C66.7294 69.8129 66.8666 70.4745 67.1357 71.0864C63.204 72.1571 59.1437 72.6814 55.0689 72.6441C50.9941 72.6814 46.9337 72.1571 43.0015 71.0864C43.2706 70.4745 43.4078 69.8129 43.4035 69.1449C43.4035 65.3686 39.3277 60.9793 34.0717 60.9793C32.8505 60.9814 31.641 61.2201 30.5106 61.6825C30.006 60.5398 29.6712 59.3298 29.5169 58.0904C31.4024 57.7182 33.3167 57.5137 35.2385 57.4796C35.8824 57.4796 36.4047 56.9573 36.4047 56.3133C36.4047 55.6688 35.8824 55.1466 35.2385 55.1466C33.2889 55.1744 31.3452 55.3698 29.4298 55.7313C29.4912 54.1507 29.7614 52.5846 30.2329 51.0745C32.5947 51.5412 34.8476 52.4484 36.874 53.7486C37.3899 54.1198 38.1086 54.0098 38.4893 53.5003C38.8706 52.9915 38.7734 52.2706 38.2709 51.8808C36.0832 50.4246 33.6376 49.4004 31.0649 48.8633C31.5428 47.7606 32.1024 46.6948 32.7394 45.6759C32.9226 45.3828 32.9664 45.0234 32.8585 44.695V44.695Z" fill="#0D0C0C"/>
</g>
</g>
<defs>
<clipPath id="clip0">
<rect width="110" height="165" fill="white"/>
</clipPath>
<clipPath id="clip1">
<rect y="60" width="110" height="110" fill="white"/>
</clipPath>
<clipPath id="clip2">
<rect x="20" y="5" width="70" height="70" fill="white"/>
</clipPath>
</defs>
</svg>
